<svg xmlns="http://www.w3.org/2000/svg" viewBox="0 0 512 512">
  <rect width="512" height="512" rx="112" fill="#f7f9fc"/>
  <g transform="translate(56 56)">
    <circle cx="200" cy="200" r="200" fill="#0e1b2a"/>
    <circle cx="200" cy="200" r="158" fill="#f7f9fc"/>
    <circle cx="200" cy="200" r="110" fill="#3aa6e9"/>
    <circle cx="200" cy="200" r="58" fill="#0e1b2a"/>
    <path fill="#0e1b2a" d="M34 190c-9.6-32.7-9-66.8 16-93.6 13.9-15 32.2-23.6 52-27.1 9.6-1.7 19.4-2.1 29.2-1.5 7.9.5 7.4 12-.5 12.5-21.4 1.2-40.5 7.2-56 21.9-17.6 16.8-22 39.3-18.8 63 .6 4.9-5 8.4-9.1 6.1-5.4-3-9.5-6.9-12.8-11.3z"/>
    <path fill="#0e1b2a" d="M24 236c-5.6-13.1-8.2-27.1-8.2-40.8 0-7.2 10.6-8.1 12.1-.9 2.5 12.3 6.3 24.3 11.7 35.3 3.1 6.6-5.9 12.2-11.4 6.4z"/>
    <path fill="#0e1b2a" d="M40.7 272c-7.7-9-13.4-19.4-17.4-30.5-2.1-5.8 5.8-10.3 10.2-6.1 7.6 7.2 14 15.5 18.5 24.9 3.3 7-6.5 13-11.3 6.7z"/>
    <path fill="#0e1b2a" d="M74.9 303.4c-10.4-6.2-19.5-14.2-27-24-3.9-5.1 2.9-11.5 8.2-8.5 10.6 6.1 19.6 13.8 27.1 23.5 4.1 5.4-2.7 12.2-8.3 9z"/>
    <path fill="#0e1b2a" d="M114.3 326.6c-11.9-3.2-23-8-33-15.1-5.5-3.8-.9-12.4 5.5-10.7 11.9 3.2 22.6 8 33.3 14.2 6.3 3.6 1.9 13-5.8 11.6z"/>
  </g>
</svg>
